<svg xmlns="http://www.w3.org/2000/svg" width="75" viewBox="0 0 75 75" height="75" version="1.0"><defs><clipPath id="a"><path d="M 0.855469 0.855469 L 74.355469 0.855469 L 74.355469 74.355469 L 0.855469 74.355469 Z M 0.855469 0.855469"/></clipPath><clipPath id="b"><path d="M 8 39 L 67 39 L 67 74.355469 L 8 74.355469 Z M 8 39"/></clipPath></defs><g clip-path="url(#a)"><path fill="#B3B3B3" d="M 74.355469 37.605469 C 74.355469 46.199219 71.414062 54.085938 66.476562 60.347656 C 59.742188 68.875 49.308594 74.355469 37.605469 74.355469 C 25.898438 74.355469 15.46875 68.875 8.734375 60.347656 C 3.792969 54.085938 0.855469 46.199219 0.855469 37.605469 C 0.855469 17.304688 17.304688 0.855469 37.605469 0.855469 C 57.902344 0.855469 74.355469 17.304688 74.355469 37.605469"/></g><g clip-path="url(#b)"><path fill="#999" d="M 66.476562 60.347656 C 59.742188 68.875 49.308594 74.355469 37.605469 74.355469 C 25.898438 74.355469 15.46875 68.875 8.734375 60.347656 C 10.0625 51.300781 15.542969 43.59375 23.195312 39.246094 C 26.546875 43.507812 31.765625 46.25 37.605469 46.25 C 43.441406 46.25 48.660156 43.507812 52.011719 39.246094 C 59.664062 43.59375 65.144531 51.300781 66.476562 60.347656"/></g><path fill="#999" d="M 37.605469 43.007812 C 42.175781 43.007812 46.273438 40.976562 49.039062 37.765625 C 51.34375 35.109375 52.738281 31.648438 52.738281 27.875 C 52.738281 19.53125 45.949219 12.742188 37.605469 12.742188 C 29.261719 12.742188 22.472656 19.53125 22.472656 27.875 C 22.472656 31.648438 23.867188 35.109375 26.167969 37.765625 C 28.9375 40.976562 33.03125 43.007812 37.605469 43.007812"/></svg>