<?xml version="1.0" encoding="UTF-8"?><svg xmlns="http://www.w3.org/2000/svg" xmlns:xlink="http://www.w3.org/1999/xlink" contentScriptType="text/ecmascript" width="768" zoomAndPan="magnify" contentStyleType="text/css" viewBox="0 0 768 767.999994" height="767.999994" preserveAspectRatio="xMidYMid meet" version="1.0"><defs><clipPath id="clip-0"><path d="M 9 261 L 501 261 L 501 639.8125 L 9 639.8125 Z M 9 261 " clip-rule="nonzero"/></clipPath><clipPath id="clip-1"><path d="M 267 128.3125 L 758.992188 128.3125 L 758.992188 507 L 267 507 Z M 267 128.3125 " clip-rule="nonzero"/></clipPath></defs><g clip-path="url(#clip-0)"><path fill="rgb(39.608765%, 44.309998%, 47.44873%)" d="M 413.769531 275.714844 L 413.769531 261.585938 L 96.1875 261.585938 C 72.339844 261.585938 50.617188 271.304688 34.992188 286.933594 C 19.339844 302.5625 9.621094 324.292969 9.648438 348.144531 L 9.648438 480.371094 C 9.648438 500.40625 16.515625 518.972656 27.984375 533.640625 C 39.457031 548.308594 55.558594 559.1875 74.121094 564.074219 L 77.710938 550.398438 L 65.476562 557.460938 L 103.925781 624.042969 C 106.867188 629.128906 111.101562 633.199219 115.847656 635.828125 C 120.625 638.484375 125.878906 639.753906 131.105469 639.753906 C 136.332031 639.753906 141.617188 638.457031 146.363281 635.828125 C 151.136719 633.199219 155.375 629.15625 158.285156 624.042969 L 191.253906 566.902344 L 413.769531 566.902344 C 437.613281 566.902344 459.339844 557.179688 474.960938 541.550781 C 490.613281 525.925781 500.304688 504.195312 500.304688 480.34375 L 500.304688 348.171875 C 500.304688 324.320312 490.585938 302.589844 474.960938 286.960938 C 459.339844 271.304688 437.613281 261.585938 413.769531 261.613281 L 413.769531 289.84375 C 429.898438 289.84375 444.394531 296.34375 454.988281 306.914062 C 465.554688 317.511719 472.050781 332.007812 472.050781 348.144531 L 472.050781 480.371094 C 472.050781 496.507812 465.554688 511.003906 454.988281 521.601562 C 444.394531 532.171875 429.898438 538.671875 413.769531 538.671875 L 174.953125 538.671875 L 133.816406 609.996094 C 133.421875 610.648438 133.082031 610.929688 132.660156 611.183594 C 132.234375 611.410156 131.671875 611.582031 131.078125 611.582031 C 130.484375 611.582031 129.949219 611.4375 129.496094 611.183594 C 129.070312 610.929688 128.734375 610.648438 128.335938 609.996094 L 86.949219 538.304688 L 81.242188 536.804688 C 68.78125 533.527344 57.90625 526.207031 50.164062 516.289062 C 42.421875 506.371094 37.84375 493.992188 37.816406 480.425781 L 37.816406 348.171875 C 37.816406 332.035156 44.316406 317.539062 54.882812 306.941406 C 65.476562 296.371094 79.96875 289.871094 96.101562 289.871094 L 413.710938 289.871094 L 413.710938 275.714844 " fill-opacity="1" fill-rule="nonzero"/></g><g clip-path="url(#clip-1)"><path fill="rgb(1.568604%, 82.749939%, 73.728943%)" d="M 672.132812 128.285156 C 672.132812 128.285156 672.105469 128.285156 672.105469 128.285156 L 354.496094 128.285156 C 330.648438 128.285156 308.894531 138.003906 293.300781 153.632812 C 277.648438 169.261719 267.929688 190.992188 267.957031 214.84375 L 267.957031 261.585938 L 296.210938 261.585938 L 296.210938 214.84375 C 296.210938 198.707031 302.707031 184.210938 313.273438 173.613281 C 323.871094 163.042969 338.363281 156.542969 354.496094 156.542969 L 672.105469 156.542969 C 688.238281 156.542969 702.730469 163.042969 713.324219 173.613281 C 723.890625 184.210938 730.390625 198.707031 730.390625 214.84375 L 730.390625 347.097656 C 730.390625 360.664062 725.785156 373.039062 718.042969 382.960938 C 710.300781 392.878906 699.425781 400.199219 686.964844 403.476562 L 681.285156 404.972656 L 639.898438 476.667969 C 639.503906 477.320312 639.164062 477.601562 638.738281 477.855469 C 638.316406 478.082031 637.75 478.25 637.15625 478.25 C 636.5625 478.25 636 478.109375 635.574219 477.855469 C 635.152344 477.601562 634.8125 477.320312 634.417969 476.667969 L 593.28125 405.398438 L 500.304688 405.398438 L 500.304688 433.65625 L 576.953125 433.65625 L 609.921875 490.796875 C 612.859375 495.886719 617.097656 499.953125 621.84375 502.582031 C 626.621094 505.210938 631.875 506.511719 637.101562 506.511719 C 642.328125 506.511719 647.582031 505.210938 652.355469 502.582031 C 657.132812 499.953125 661.371094 495.914062 664.28125 490.796875 L 699.933594 429.050781 C 716.039062 423.570312 729.992188 413.480469 740.222656 400.367188 C 751.691406 385.699219 758.554688 367.132812 758.554688 347.097656 L 758.554688 214.84375 C 758.554688 190.992188 748.835938 169.261719 733.214844 153.632812 C 717.675781 138.003906 695.949219 128.285156 672.132812 128.285156 " fill-opacity="1" fill-rule="nonzero"/></g><path fill="rgb(1.568604%, 82.749939%, 73.728943%)" d="M 500.332031 405.425781 L 486.207031 405.425781 C 478.410156 405.425781 472.082031 411.757812 472.082031 419.554688 C 472.082031 427.355469 478.410156 433.6875 486.207031 433.6875 L 500.332031 433.6875 L 500.332031 405.425781 M 296.183594 261.613281 L 267.929688 261.613281 L 267.929688 275.742188 C 267.929688 283.542969 274.257812 289.871094 282.058594 289.871094 C 289.855469 289.871094 296.183594 283.542969 296.183594 275.742188 L 296.183594 261.613281 " fill-opacity="1" fill-rule="nonzero"/></svg>